<svg width="24" height="25" viewBox="0 0 24 25" fill="none" xmlns="http://www.w3.org/2000/svg">
<g clip-path="url(#clip0_1414_503)">
<path d="M19.46 8.66652L20.25 6.91652L22 6.12652C22.39 5.94652 22.39 5.39652 22 5.21652L20.25 4.42652L19.46 2.66652C19.28 2.27652 18.73 2.27652 18.55 2.66652L17.76 4.41652L16 5.20652C15.61 5.38652 15.61 5.93652 16 6.11652L17.75 6.90652L18.54 8.66652C18.72 9.05652 19.28 9.05652 19.46 8.66652ZM11.5 10.1665L9.91004 6.66652C9.56004 5.88652 8.44004 5.88652 8.09004 6.66652L6.50004 10.1665L3.00004 11.7565C2.22004 12.1165 2.22004 13.2265 3.00004 13.5765L6.50004 15.1665L8.09004 18.6665C8.45004 19.4465 9.56004 19.4465 9.91004 18.6665L11.5 15.1665L15 13.5765C15.78 13.2165 15.78 12.1065 15 11.7565L11.5 10.1665ZM18.54 16.6665L17.75 18.4165L16 19.2065C15.61 19.3865 15.61 19.9365 16 20.1165L17.75 20.9065L18.54 22.6665C18.72 23.0565 19.27 23.0565 19.45 22.6665L20.24 20.9165L22 20.1265C22.39 19.9465 22.39 19.3965 22 19.2165L20.25 18.4265L19.46 16.6665C19.28 16.2765 18.72 16.2765 18.54 16.6665Z" fill="#FAFAFA"/>
</g>
<defs>
<clipPath id="clip0_1414_503">
<rect width="24" height="24" fill="white" transform="translate(0 0.666504)"/>
</clipPath>
</defs>
</svg>
