<svg width="32" height="32" viewBox="0 0 32 32" fill="none" xmlns="http://www.w3.org/2000/svg" shape-rendering="geometricPrecision">
<path d="M12.9672 2.26054C13.8658 -0.753515 18.1342 -0.753514 19.0328 2.26054C19.6065 4.18494 21.8043 5.0953 23.5708 4.14023C26.3374 2.64435 29.3556 5.6626 27.8598 8.42924C26.9047 10.1957 27.8151 12.3935 29.7395 12.9672C32.7535 13.8658 32.7535 18.1342 29.7395 19.0328C27.8151 19.6065 26.9047 21.8043 27.8598 23.5708C29.3556 26.3374 26.3374 29.3556 23.5708 27.8598C21.8043 26.9047 19.6065 27.8151 19.0328 29.7395C18.1342 32.7535 13.8658 32.7535 12.9672 29.7395C12.3935 27.8151 10.1957 26.9047 8.42924 27.8598C5.6626 29.3556 2.64435 26.3374 4.14023 23.5708C5.0953 21.8043 4.18494 19.6065 2.26054 19.0328C-0.753514 18.1342 -0.753514 13.8658 2.26054 12.9672C4.18494 12.3935 5.0953 10.1957 4.14023 8.42924C2.64435 5.6626 5.6626 2.64435 8.42924 4.14023C10.1957 5.0953 12.3935 4.18494 12.9672 2.26054Z" fill="currentColor" />
</svg>
