<svg width="33" height="32" viewBox="0 0 33 32" fill="none" xmlns="http://www.w3.org/2000/svg">
<rect width="32.2238" height="32" rx="3" fill="white"/>
<path d="M19.9343 10.4053H12.2864C6.73675 10.4053 2.23782 15.0092 2.23782 20.6848C2.23658 20.7883 2.25576 20.891 2.29426 20.9871C2.33276 21.0832 2.38983 21.1707 2.46221 21.2448C2.53459 21.3188 2.62087 21.3779 2.7161 21.4186C2.81134 21.4594 2.91367 21.481 3.01726 21.4822H8.58715C11.7236 21.4822 14.4252 19.8935 16.1119 17.4607C17.7986 19.8935 20.5001 21.4822 23.6366 21.4822H29.2065C29.3101 21.481 29.4124 21.4594 29.5077 21.4186C29.6029 21.3779 29.6892 21.3188 29.7616 21.2448C29.8339 21.1707 29.891 21.0832 29.9295 20.9871C29.968 20.891 29.9872 20.7883 29.986 20.6848V20.6848C29.9844 15.0092 25.4855 10.4053 19.9343 10.4053Z" fill="black"/>
</svg>
