<svg width="324" height="321" viewBox="0 0 324 321" fill="none" xmlns="http://www.w3.org/2000/svg">
<path d="M126.828 14.2757C128.575 12.8498 129.448 12.1369 130.245 11.5351C149.03 -2.64515 174.97 -2.64515 193.755 11.5351C194.552 12.1369 195.426 12.8498 197.172 14.2757C197.952 14.9121 198.342 15.2304 198.728 15.5333C207.568 22.4788 218.406 26.4148 229.653 26.7636C230.143 26.7788 230.647 26.7851 231.654 26.7976C233.911 26.8255 235.039 26.8395 236.038 26.8898C259.563 28.0742 279.435 44.7107 284.689 67.6205C284.912 68.5929 285.122 69.6991 285.541 71.9115C285.728 72.8992 285.822 73.393 285.922 73.8723C288.22 84.8623 293.987 94.8285 302.377 102.308C302.743 102.635 303.125 102.963 303.889 103.618C305.599 105.087 306.455 105.821 307.187 106.5C324.446 122.495 328.95 147.983 318.216 168.903C317.76 169.791 317.208 170.773 316.104 172.737C315.611 173.613 315.365 174.052 315.133 174.483C309.812 184.375 307.809 195.708 309.418 206.82C309.488 207.304 309.569 207.8 309.732 208.792C310.096 211.014 310.278 212.125 310.402 213.115C313.318 236.436 300.348 258.851 278.647 267.992C277.726 268.379 276.671 268.778 274.56 269.574C273.617 269.929 273.146 270.107 272.69 270.289C262.242 274.455 253.406 281.852 247.48 291.395C247.221 291.811 246.964 292.243 246.45 293.108C245.297 295.043 244.721 296.011 244.178 296.849C231.387 316.584 207.011 325.436 184.498 318.521C183.543 318.228 182.478 317.856 180.348 317.112C179.397 316.78 178.921 316.614 178.455 316.461C167.767 312.951 156.233 312.951 145.545 316.461C145.079 316.614 144.604 316.78 143.653 317.112C141.523 317.856 140.458 318.228 139.502 318.521C116.989 325.436 92.6131 316.584 79.8223 296.849C79.2794 296.011 78.7031 295.043 77.5505 293.108C77.036 292.243 76.7788 291.811 76.5203 291.395C70.5942 281.852 61.7586 274.455 51.3098 270.289C50.8541 270.107 50.3829 269.929 49.4406 269.574C47.3297 268.778 46.2742 268.379 45.3532 267.992C23.6525 258.851 10.6822 236.436 13.5983 213.115C13.722 212.125 13.9042 211.014 14.2684 208.792C14.431 207.8 14.5123 207.304 14.5825 206.82C16.1911 195.708 14.1882 184.375 8.86773 174.483C8.63566 174.052 8.38924 173.613 7.89641 172.737C6.79237 170.773 6.24036 169.791 5.78474 168.903C-4.9499 147.983 -0.445344 122.495 16.8131 106.5C17.5456 105.821 18.4009 105.087 20.1116 103.618C20.8752 102.963 21.257 102.635 21.623 102.308C30.0136 94.8285 35.7807 84.8623 38.0779 73.8723C38.1781 73.393 38.2718 72.8992 38.459 71.9115C38.8785 69.6991 39.0883 68.5928 39.3113 67.6205C44.5654 44.7107 64.4372 28.0742 87.9625 26.8898C88.961 26.8395 90.0894 26.8255 92.346 26.7976C93.3534 26.7851 93.857 26.7788 94.3476 26.7636C105.594 26.4148 116.433 22.4788 125.273 15.5333C125.658 15.2304 126.048 14.9121 126.828 14.2757Z" fill="black"/>
</svg>
