<svg width="304" height="312" viewBox="0 0 304 312" fill="none" xmlns="http://www.w3.org/2000/svg">
<path d="M0.875 79.3221C0.875 35.5137 36.3887 0 80.1971 0H223.803C267.611 0 303.125 35.5137 303.125 79.3221C303.125 115.45 278.972 145.937 245.932 155.516C245.717 155.579 245.567 155.776 245.567 156C245.567 156.224 245.717 156.421 245.932 156.484C278.972 166.063 303.125 196.55 303.125 232.678C303.125 276.486 267.611 312 223.803 312H80.1971C36.3887 312 0.875 276.486 0.875 232.678C0.875 196.785 24.7138 166.461 57.422 156.674C57.72 156.585 57.9264 156.311 57.9264 156C57.9264 155.689 57.72 155.415 57.422 155.326C24.7138 145.539 0.875 115.214 0.875 79.3221Z" fill="black"/>
</svg>
