<svg width="217" height="45" viewBox="0 0 217 45" fill="none" xmlns="http://www.w3.org/2000/svg">
<g id="Logo">
<path id="Vector" d="M58.0395 21.64C59.5155 21.64 60.6324 20.72 60.6324 19.44C60.6324 18.24 59.5553 17.52 58.0794 17.52H56.5237V21.64H58.0395ZM53.2129 14.64H58.4783C61.5897 14.64 63.8236 16.64 63.8236 19.44C63.8236 22.28 61.5897 24.32 58.4783 24.32H56.5237V29.52H53.2129V14.64Z" fill="white"/>
<path id="Vector_2" d="M65.6584 14.64H69.0491V26.44H75.8702V29.52H65.6584V14.64Z" fill="white"/>
<path id="Vector_3" d="M84.7257 18.12L80.6968 29.52H77.1865L83.0104 14.64H86.4808L92.2249 29.52H88.6349L84.7257 18.12Z" fill="white"/>
<path id="Vector_4" d="M107.662 29.52H104.631L97.69 19.96V29.52H94.3792V14.64H97.3709L104.391 24.12V14.64H107.662V29.52Z" fill="white"/>
<path id="Vector_5" d="M117.276 26.6C119.589 26.6 121.185 24.6 121.185 22.08C121.185 19.56 119.589 17.56 117.276 17.56C114.962 17.56 113.367 19.56 113.367 22.08C113.367 24.6 114.962 26.6 117.276 26.6ZM117.276 14.4C121.384 14.4 124.655 17.8 124.655 22.08C124.655 26.36 121.384 29.76 117.276 29.76C113.167 29.76 109.896 26.4 109.896 22.08C109.896 17.8 113.167 14.4 117.276 14.4Z" fill="white"/>
<path id="Vector_6" d="M149.427 21.64C150.903 21.64 152.02 20.72 152.02 19.44C152.02 18.24 150.943 17.52 149.467 17.52H147.911V21.64H149.427ZM144.6 14.64H149.866C152.977 14.64 155.211 16.64 155.211 19.44C155.211 22.28 152.977 24.32 149.866 24.32H147.911V29.52H144.6V14.64Z" fill="white"/>
<path id="Vector_7" d="M157.046 14.64H160.437V26.44H167.218V29.52H157.046V14.64Z" fill="white"/>
<path id="Vector_8" d="M176.113 18.12L172.044 29.52H168.574L174.358 14.64H177.868L183.612 29.52H180.022L176.113 18.12Z" fill="white"/>
<path id="Vector_9" d="M199.01 29.52H196.018L189.077 19.96V29.52H185.767V14.64H188.718L195.779 24.12V14.64H199.01V29.52Z" fill="white"/>
<path id="Vector_10" d="M208.663 26.6C210.976 26.6 212.572 24.6 212.572 22.08C212.572 19.56 210.976 17.56 208.663 17.56C206.349 17.56 204.754 19.56 204.754 22.08C204.754 24.6 206.309 26.6 208.663 26.6ZM208.663 14.4C212.771 14.4 216.042 17.8 216.042 22.08C216.042 26.36 212.771 29.76 208.663 29.76C204.554 29.76 201.283 26.4 201.283 22.08C201.283 17.8 204.514 14.4 208.663 14.4Z" fill="white"/>
<path id="Vector_11" d="M132.354 23.28C131.197 23.88 130.758 24.64 130.758 25.56C130.758 26.52 131.516 27.12 132.992 27.12C133.91 27.12 134.668 26.92 135.266 26.44L132.354 23.28ZM137.978 29.52L136.861 28.32C135.705 29.28 134.309 29.76 132.593 29.76C129.602 29.76 127.767 28.48 127.767 25.8C127.767 23.72 128.923 22.48 130.758 21.52L130.399 21.08C129.602 20.2 129.123 19.24 129.123 18.08C129.123 15.64 131.038 14.4 133.511 14.4C135.306 14.4 136.502 14.96 137.899 15.96L136.502 18.08C135.545 17.32 134.508 17 133.431 17C132.553 17 132.035 17.36 132.035 18C132.035 18.64 132.354 19.08 132.833 19.6L136.861 24.28C137.181 23.6 137.54 22.8 137.899 21.84L140.252 22.6C139.813 24.04 139.255 25.28 138.577 26.32L141.369 29.52H137.978Z" fill="#FF2732"/>
<path id="Vector_12" d="M25.1703 5.92001C27.3243 7.16001 28.8002 9.48001 28.8002 12.08C28.8002 13.96 28.0423 15.68 26.8456 16.96V23C30.7548 20.92 33.4274 16.88 33.4274 12.24C33.4274 5.48 27.6035 0 20.4633 0V38.28L20.5431 38.24C18.389 37 16.9131 34.68 16.9131 32.08C16.9131 30.2 17.671 28.48 18.8677 27.24V21.2C14.9585 23.28 12.2859 27.32 12.2859 31.96C12.2859 38.72 18.1098 44.2 25.25 44.2H25.1703V5.92001Z" fill="#FF2732"/>
<path id="Vector_13" d="M34.7041 7.88001C35.2625 9.24001 35.462 10.88 35.462 12.44C35.462 14.4 34.9833 16.28 34.1057 17.92L34.1456 17.88H41.3257C41.7246 16.56 41.8443 15.24 41.8443 14.04C41.8044 10.6 40.3285 7.28001 37.9351 4.80001L37.8553 4.72002C37.8155 4.72002 36.6587 5.92001 34.7041 7.88001Z" fill="#FF2732"/>
<path id="Vector_14" d="M36.858 33.84C35.5018 34.4 33.8663 34.6 32.3106 34.6C30.356 34.6 28.4812 34.12 26.8457 33.24L26.8856 33.28V40.48C28.202 40.88 29.5183 41 30.715 41C34.1455 40.96 37.4564 39.48 39.9295 37.08L40.0093 37C40.0093 36.96 38.8126 35.76 36.858 33.84Z" fill="#FF2732"/>
<path id="Vector_15" d="M11.0095 36.28C10.451 34.92 10.2516 33.28 10.2516 31.72C10.2516 29.76 10.7303 27.88 11.6078 26.24L11.5679 26.32H4.38779C3.9889 27.64 3.82934 28.96 3.86923 30.16C3.90912 33.6 5.38504 36.92 7.77842 39.4L7.8582 39.48C7.8582 39.44 9.05489 38.24 11.0095 36.28Z" fill="#FF2732"/>
<path id="Vector_16" d="M8.85539 10.32C10.2116 9.76002 11.8471 9.56002 13.4028 9.56002C15.3574 9.56002 17.2322 10.04 18.8677 10.92L18.8278 10.88V3.68002C17.5115 3.28002 16.235 3.12002 14.9984 3.16002C11.5679 3.20002 8.25704 4.68002 5.78388 7.08002L5.7041 7.16002C5.7041 7.20002 6.90079 8.40002 8.85539 10.32Z" fill="#FF2732"/>
<path id="Vector_17" d="M33.3877 19.64H44.5169V19.72C44.5169 23.4 43.0809 26.96 40.4482 29.48C38.7329 31.12 36.4592 32.48 33.3877 32.68L32.6697 32.72H32.6298H32.5899L31.8719 32.68C29.9173 32.56 28.2419 31.96 26.8059 31.12V25.2C26.8059 25.2 26.8059 25.2 26.8458 25.2C28.1223 26.72 29.8774 27.96 32.6298 27.96C35.8609 27.96 37.4565 26.24 38.6133 24.48H28.3217C30.4758 23.28 32.191 21.64 33.3877 19.64Z" fill="#FF2732"/>
<path id="Vector_18" d="M12.326 24.52H1.19678V24.44C1.19678 20.76 2.63281 17.2 5.26553 14.68C6.98078 13.04 9.2545 11.68 12.326 11.48L13.044 11.44H13.0839H13.1238L13.8418 11.48C15.7964 11.6 17.4718 12.2 18.9078 13.04V18.96C18.9078 18.96 18.9078 18.96 18.8679 18.96C17.5914 17.44 15.8363 16.2 13.0839 16.2C9.85284 16.2 8.25726 17.92 7.10045 19.68H17.392C15.238 20.88 13.4828 22.52 12.326 24.52Z" fill="#FF2732"/>
</g>
</svg>
