<svg width="1162" height="333" viewBox="0 0 1162 333" fill="none" xmlns="http://www.w3.org/2000/svg">
<path d="M821.23 35.26H816.43V198.93H821.23V35.26Z" fill="#E30C13"/>
<path fill-rule="evenodd" clip-rule="evenodd" d="M248.65 33.02V30.91C249.68 31.59 250.7 32.3 251.71 33.02H248.65ZM248.65 1.57001C264.16 9.27001 277.9 20.02 289.09 33.02H378.31V0.100006H248.65V1.57001ZM135.26 0.100006H138.29C137.27 0.570006 136.26 1.05999 135.26 1.54999V0.100006ZM248.65 0.100006V1.57001C247.64 1.07001 246.61 0.570006 245.58 0.100006H248.65ZM248.65 30.9V33.01H135.26V30.92C151.53 20.1 171.03 13.78 191.93 13.78C212.12 13.79 231.88 19.77 248.65 30.9ZM70.24 0.100006H135.27V1.54999C119.75 9.24999 105.99 20 94.79 33.02H70.25C62.81 33.02 56.73 26.93 56.73 19.5V13.62C56.71 6.18 62.8 0.100006 70.24 0.100006ZM135.26 30.93C134.24 31.61 133.23 32.31 132.23 33.02H135.26V30.93Z" fill="#E30C13"/>
<path fill-rule="evenodd" clip-rule="evenodd" d="M371.26 107.69H319.8C320 110.59 320.1 113.5 320.1 116.45C320.1 124.71 319.3 132.78 317.8 140.62H371.25C378.68 140.62 384.77 134.53 384.77 127.1V121.22C384.78 113.77 378.69 107.69 371.26 107.69ZM294.23 107.69H245.36V140.61H291.72C293.6 132.85 294.61 124.76 294.61 116.44C294.6 113.49 294.47 110.57 294.23 107.69ZM198.48 107.69H184.76L191.62 124.15L198.48 107.69ZM137.56 107.69H89.65C89.4 110.58 89.27 113.5 89.27 116.45C89.27 124.77 90.28 132.86 92.17 140.62H137.55V107.69H137.56ZM160.18 140.61H175.4L162.75 110.51C161.31 107.47 160.18 107.62 160.18 110.99V140.61ZM208.19 140.61H222.58V110.99C222.58 107.62 221.46 107.46 220.01 110.51L208.19 140.61Z" fill="#E30C13"/>
<path fill-rule="evenodd" clip-rule="evenodd" d="M246.26 234.09V232.49C262.22 224.97 276.4 214.26 287.96 201.17H324.22V234.09H246.26ZM246.26 203.49C247.46 202.74 248.64 201.96 249.81 201.16H246.26V203.49ZM137.66 232.5C138.82 233.05 139.99 233.58 141.17 234.09H137.66V232.5ZM246.26 201.17V203.5C230.5 213.39 211.88 219.11 191.95 219.11C172.74 219.11 153.89 213.65 137.67 203.48V201.18H246.26V201.17ZM246.26 232.49V234.09H242.71C243.9 233.57 245.08 233.04 246.26 232.49ZM35.9 201.17H95.91C107.48 214.27 121.68 224.99 137.66 232.5V234.09H35.9C28.53 234.09 22.49 228 22.49 220.57V214.69C22.49 207.25 28.53 201.17 35.9 201.17ZM137.66 201.17H134.15C135.31 201.96 136.48 202.73 137.66 203.47V201.17Z" fill="#E30C13"/>
<path fill-rule="evenodd" clip-rule="evenodd" d="M0.27002 39.49H89.57C84.73 45.91 80.48 52.8 76.89 60.07H0.27002V39.49ZM124.13 39.49H259.82C266.65 45.52 272.67 52.44 277.7 60.07H106.22C111.26 52.43 117.29 45.51 124.13 39.49ZM294.3 39.49H337.74V60.07H306.98C303.4 52.79 299.15 45.91 294.3 39.49Z" fill="#E30C13"/>
<path fill-rule="evenodd" clip-rule="evenodd" d="M93.97 147.08H137.55C137.45 150.46 135.72 153.02 133.39 153.02C131.14 153.02 129.38 155.74 129.38 159.28L129.26 170.01H104.46C100.07 162.88 96.53 155.2 93.97 147.08ZM160.18 147.08H178.11L187.28 168.9C187.5 169.34 188.01 169.78 188.57 170.01H168.35V159.28C168.35 155.74 166.59 153.02 164.34 153.02C162.17 153.02 160.29 150.45 160.18 147.08ZM205.65 147.08H222.57C222.46 150.46 220.58 153.02 218.41 153.02C216.16 153.02 214.4 155.74 214.4 159.28V170.01H195.78C196.34 169.77 196.86 169.34 197.08 168.9L205.65 147.08ZM245.35 147.08H289.91C287.36 155.2 283.82 162.89 279.44 170.01H253.37V163.45L253.53 159.28C253.53 155.74 251.6 153.02 249.36 153.02C247.44 153.02 245.99 151.26 245.35 148.85V147.08ZM316.38 147.08H381.84V170.01H308.33C311.71 162.7 314.42 155.03 316.38 147.08Z" fill="#E30C13"/>
<path fill-rule="evenodd" clip-rule="evenodd" d="M62.01 176.35H78.7C82.02 182.59 85.84 188.53 90.11 194.11H62V176.35H62.01ZM108.71 176.35H275.22C270.51 182.88 265.04 188.85 258.96 194.11H124.99C118.9 188.85 113.43 182.89 108.71 176.35ZM305.17 176.35H350.68V194.11H293.76C298.03 188.53 301.85 182.6 305.17 176.35Z" fill="#E30C13"/>
<path fill-rule="evenodd" clip-rule="evenodd" d="M15.5601 66.53H73.9201C69.3601 77.24 66.2301 88.68 64.7501 100.63H15.5601V66.53ZM102.28 66.53H129.38V76.98C129.38 80.35 131.14 83.23 133.39 83.23C135.8 83.23 137.56 85.95 137.56 89.33V100.63H90.4901C92.4001 88.42 96.4601 76.93 102.28 66.53ZM167.61 66.53H215.63L201.42 100.63H181.82L167.61 66.53ZM253.54 66.53H281.63C287.44 76.92 291.49 88.42 293.39 100.63H245.36V89.33C245.36 85.96 246.97 83.23 249.37 83.23C251.62 83.23 253.54 80.35 253.54 76.98V66.53Z" fill="#E30C13"/>
<path d="M451.46 66.34L459.94 65.47C460.44 68.44 461.48 70.62 463.05 72.01C464.61 73.39 466.71 74.09 469.36 74.09C472.16 74.09 474.29 73.47 475.7 72.23C477.13 70.99 477.84 69.55 477.84 67.9C477.84 66.83 477.54 65.94 476.94 65.19C476.35 64.44 475.3 63.79 473.8 63.24C472.78 62.86 470.45 62.21 466.82 61.27C462.15 60.07 458.87 58.58 456.99 56.82C454.33 54.35 453.01 51.34 453.01 47.78C453.01 45.49 453.63 43.35 454.88 41.35C456.13 39.36 457.93 37.84 460.27 36.8C462.62 35.76 465.45 35.24 468.76 35.24C474.19 35.24 478.26 36.48 481 38.94C483.73 41.42 485.17 44.71 485.31 48.85L476.6 49.25C476.23 46.94 475.42 45.28 474.2 44.27C472.97 43.25 471.13 42.75 468.68 42.75C466.15 42.75 464.16 43.28 462.73 44.37C461.81 45.06 461.34 45.99 461.34 47.15C461.34 48.22 461.77 49.13 462.64 49.88C463.74 50.84 466.41 51.85 470.65 52.88C474.89 53.92 478.03 55 480.06 56.11C482.09 57.23 483.68 58.75 484.83 60.68C485.98 62.62 486.55 65 486.55 67.84C486.55 70.41 485.87 72.83 484.49 75.07C483.11 77.32 481.17 78.99 478.66 80.08C476.15 81.18 473.01 81.72 469.26 81.72C463.8 81.72 459.61 80.41 456.69 77.79C453.77 75.19 452.02 71.37 451.46 66.34Z" fill="#E30C13"/>
<path d="M493.84 36.02H502.11V43.99H493.84V36.02ZM493.84 48.41H502.11V80.96H493.84V48.41Z" fill="#E30C13"/>
<path d="M507.68 71.67L515.98 70.35C516.33 72.02 517.05 73.3 518.13 74.17C519.21 75.04 520.71 75.48 522.66 75.48C524.8 75.48 526.41 75.07 527.49 74.24C528.22 73.67 528.58 72.9 528.58 71.95C528.58 71.29 528.38 70.75 527.99 70.32C527.58 69.91 526.65 69.53 525.22 69.19C518.55 67.66 514.31 66.26 512.53 64.99C510.06 63.23 508.82 60.78 508.82 57.65C508.82 54.84 509.89 52.46 512.02 50.55C514.16 48.62 517.48 47.66 521.97 47.66C526.25 47.66 529.44 48.39 531.52 49.84C533.6 51.29 535.03 53.44 535.81 56.29L528.01 57.78C527.68 56.51 527.05 55.54 526.11 54.87C525.18 54.19 523.85 53.85 522.12 53.85C519.94 53.85 518.38 54.16 517.44 54.8C516.82 55.25 516.51 55.84 516.51 56.55C516.51 57.17 516.78 57.68 517.33 58.11C518.07 58.68 520.65 59.49 525.06 60.53C529.46 61.57 532.54 62.84 534.29 64.36C536.02 65.9 536.88 68.03 536.88 70.76C536.88 73.74 535.69 76.32 533.28 78.46C530.89 80.6 527.35 81.67 522.65 81.67C518.39 81.67 515.02 80.77 512.53 78.97C510.06 77.2 508.44 74.75 507.68 71.67Z" fill="#E30C13"/>
<path d="M558.47 48.41V55.27H552.82V68.39C552.82 71.05 552.87 72.6 552.98 73.04C553.09 73.48 553.33 73.84 553.71 74.13C554.09 74.42 554.56 74.56 555.11 74.56C555.88 74.56 556.99 74.28 558.45 73.73L559.15 80.41C557.22 81.27 555.05 81.7 552.61 81.7C551.12 81.7 549.77 81.44 548.58 80.92C547.38 80.4 546.51 79.72 545.95 78.89C545.39 78.06 545.01 76.94 544.78 75.53C544.61 74.54 544.52 72.51 544.52 69.46V55.27H540.72V48.41H544.52V41.93L552.82 36.91V48.41H558.47Z" fill="#E30C13"/>
<path d="M582.32 70.6L590.57 72.03C589.51 75.18 587.84 77.58 585.55 79.22C583.26 80.87 580.4 81.69 576.96 81.69H576.61V75.24C576.76 75.25 576.9 75.25 577.05 75.25C578.35 75.25 579.43 74.88 580.32 74.15C581.21 73.42 581.88 72.23 582.32 70.6ZM576.61 47.67C581.04 47.78 584.55 49.37 587.15 52.47C589.84 55.67 591.12 60.57 591.01 67.17H576.61V61.9H582.79C582.73 59.4 582.12 57.51 580.94 56.21C579.76 54.91 578.33 54.26 576.64 54.26H576.61V47.67ZM576.61 81.69C571.35 81.61 567.45 79.77 564.89 76.15C562.83 73.19 561.8 69.44 561.8 64.93C561.8 59.53 563.16 55.3 565.87 52.25C568.58 49.2 572 47.67 576.14 47.67C576.3 47.67 576.46 47.67 576.61 47.68V54.27C574.81 54.28 573.34 54.97 572.17 56.33C570.99 57.69 570.41 59.55 570.43 61.91H576.61V67.18H570.28C570.34 69.73 571 71.72 572.28 73.14C573.46 74.45 574.9 75.16 576.61 75.26V81.69Z" fill="#E30C13"/>
<path d="M597.14 48.41H604.77V52.85C607.49 49.39 610.75 47.67 614.52 47.67C616.52 47.67 618.26 48.1 619.73 48.96C621.21 49.82 622.41 51.12 623.36 52.85C624.73 51.11 626.21 49.81 627.8 48.96C629.39 48.1 631.09 47.67 632.9 47.67C635.19 47.67 637.14 48.16 638.73 49.13C640.32 50.09 641.5 51.53 642.29 53.4C642.86 54.79 643.14 57.04 643.14 60.15V80.96H634.87V62.36C634.87 59.13 634.59 57.05 634.02 56.1C633.26 54.88 632.08 54.26 630.49 54.26C629.32 54.26 628.24 54.63 627.21 55.37C626.2 56.1 625.46 57.18 625.01 58.6C624.56 60.02 624.33 62.26 624.33 65.33V80.96H616.06V63.12C616.06 59.95 615.91 57.91 615.62 56.99C615.33 56.07 614.87 55.39 614.25 54.94C613.63 54.49 612.79 54.26 611.72 54.26C610.45 54.26 609.3 54.62 608.28 55.34C607.25 56.05 606.52 57.09 606.08 58.44C605.64 59.79 605.42 62.02 605.42 65.15V80.97H597.15V48.41H597.14Z" fill="#E30C13"/>
<path d="M663.06 47.67C663.24 47.67 663.42 47.67 663.6 47.67C667.3 47.67 670.04 48.13 671.85 49.04C673.65 49.95 674.93 51.1 675.66 52.5C676.39 53.9 676.77 56.47 676.77 60.21L676.68 70.27C676.68 73.13 676.81 75.24 677.08 76.6C677.34 77.95 677.84 79.42 678.57 80.96H670.38C670.17 80.38 669.9 79.54 669.59 78.42C669.46 77.9 669.36 77.57 669.3 77.4C667.88 78.84 666.37 79.9 664.77 80.62C664.22 80.86 663.65 81.07 663.07 81.23V75.55C664.21 75.37 665.3 74.89 666.36 74.1C667.37 73.33 668.02 72.37 668.33 71.24C668.55 70.51 668.65 69.11 668.65 67.04V65.32C667.6 65.69 665.92 66.13 663.62 66.64L663.08 66.76V61.31C665.65 60.74 667.51 60.2 668.66 59.7V58.84C668.66 57.17 668.27 56 667.48 55.29C666.7 54.59 665.24 54.24 663.08 54.23V47.67H663.06ZM657.57 58.34L650.06 56.93C650.91 53.78 652.35 51.46 654.41 49.94C656.39 48.5 659.26 47.74 663.05 47.68V54.27H663.01C661.53 54.27 660.39 54.57 659.57 55.18C658.75 55.76 658.08 56.82 657.57 58.34ZM663.06 81.23C661.96 81.54 660.81 81.69 659.6 81.69C656.38 81.69 653.84 80.78 651.99 78.97C650.13 77.15 649.2 74.85 649.2 72.06C649.2 70.23 649.62 68.59 650.47 67.14C651.31 65.7 652.5 64.6 654.02 63.83C655.54 63.07 657.74 62.4 660.6 61.82C661.48 61.65 662.29 61.48 663.05 61.31V66.76C661.06 67.23 659.75 67.69 659.09 68.13C658.01 68.94 657.47 69.94 657.47 71.17C657.47 72.38 657.9 73.42 658.77 74.3C659.63 75.18 660.73 75.62 662.07 75.62C662.4 75.62 662.73 75.6 663.05 75.55V81.23H663.06Z" fill="#E30C13"/>
<path d="M454.73 139.75V94.81H467.77L475.6 125.47L483.34 94.81H496.42V139.75H488.33V104.38L479.75 139.75H471.36L462.82 104.38V139.75H454.73Z" fill="#E30C13"/>
<path d="M516.69 106.47C516.87 106.47 517.05 106.46 517.23 106.46C520.93 106.46 523.67 106.92 525.48 107.83C527.28 108.74 528.56 109.89 529.29 111.29C530.02 112.69 530.4 115.26 530.4 119L530.31 129.06C530.31 131.92 530.44 134.03 530.71 135.39C530.97 136.74 531.47 138.2 532.2 139.75H524.01C523.8 139.17 523.53 138.33 523.22 137.21C523.09 136.7 522.99 136.36 522.93 136.2C521.51 137.64 520.01 138.7 518.4 139.42C517.85 139.66 517.28 139.87 516.7 140.03V134.34C517.84 134.17 518.93 133.68 519.99 132.89C521 132.12 521.65 131.16 521.96 130.03C522.18 129.3 522.28 127.9 522.28 125.83V124.11C521.23 124.48 519.55 124.92 517.25 125.43L516.71 125.55V120.1C519.28 119.53 521.14 119 522.29 118.49V117.63C522.29 115.96 521.9 114.79 521.12 114.08C520.34 113.38 518.87 113.03 516.71 113.02V106.47H516.69ZM511.21 117.13L503.7 115.72C504.55 112.57 505.99 110.25 508.05 108.73C510.03 107.29 512.91 106.53 516.69 106.47V113.06H516.65C515.17 113.06 514.03 113.36 513.21 113.97C512.38 114.56 511.72 115.62 511.21 117.13ZM516.69 140.03C515.59 140.34 514.44 140.49 513.24 140.49C510.02 140.49 507.48 139.58 505.63 137.77C503.77 135.95 502.85 133.65 502.85 130.86C502.85 129.03 503.27 127.39 504.12 125.94C504.96 124.5 506.15 123.4 507.67 122.63C509.19 121.87 511.39 121.2 514.25 120.62C515.13 120.45 515.94 120.28 516.7 120.11V125.56C514.71 126.03 513.4 126.49 512.74 126.93C511.66 127.74 511.12 128.74 511.12 129.96C511.12 131.17 511.55 132.21 512.42 133.09C513.28 133.97 514.38 134.41 515.72 134.41C516.05 134.41 516.38 134.39 516.7 134.33V140.03H516.69Z" fill="#E30C13"/>
<path d="M565.84 116.83L557.68 118.36C557.41 116.66 556.78 115.39 555.81 114.53C554.84 113.67 553.58 113.24 552.03 113.24C549.96 113.24 548.32 113.98 547.09 115.46C545.87 116.95 545.25 119.43 545.25 122.9C545.25 126.76 545.87 129.49 547.12 131.08C548.37 132.67 550.03 133.47 552.13 133.47C553.71 133.47 554.98 133.01 555.99 132.08C556.99 131.15 557.7 129.55 558.11 127.29L566.24 128.72C565.39 132.6 563.77 135.54 561.38 137.52C558.99 139.51 555.78 140.49 551.75 140.49C547.17 140.49 543.53 138.99 540.81 135.99C538.09 132.99 536.73 128.82 536.73 123.51C536.73 118.14 538.1 113.96 540.82 110.96C543.55 107.96 547.24 106.46 551.89 106.46C555.7 106.46 558.73 107.32 560.98 109.02C563.23 110.73 564.85 113.34 565.84 116.83Z" fill="#E30C13"/>
<path d="M571.81 139.75V94.81H580.09V118.66L589.77 107.2H599.96L589.28 119.09L600.73 139.75H591.81L583.94 125.14L580.09 129.33V139.75H571.81Z" fill="#E30C13"/>
<path d="M623.76 129.4L632.01 130.83C630.94 133.98 629.28 136.38 626.99 138.02C624.71 139.67 621.84 140.49 618.41 140.49H618.06V134.05C618.21 134.06 618.35 134.06 618.5 134.06C619.8 134.06 620.88 133.69 621.77 132.96C622.64 132.21 623.31 131.03 623.76 129.4ZM618.05 106.47C622.48 106.58 625.99 108.17 628.6 111.27C631.28 114.47 632.57 119.37 632.46 125.97H618.06V120.7H624.24C624.18 118.2 623.57 116.31 622.39 115.01C621.21 113.71 619.78 113.06 618.09 113.06H618.06V106.47H618.05ZM618.05 140.48C612.79 140.4 608.89 138.56 606.33 134.94C604.27 131.98 603.24 128.23 603.24 123.72C603.24 118.32 604.6 114.09 607.31 111.04C610.02 107.98 613.44 106.46 617.58 106.46C617.74 106.46 617.9 106.46 618.05 106.47V113.06C616.25 113.07 614.78 113.76 613.61 115.12C612.43 116.48 611.85 118.34 611.87 120.7H618.05V125.97H611.72C611.78 128.52 612.44 130.51 613.72 131.92C614.9 133.23 616.34 133.94 618.05 134.05V140.48Z" fill="#E30C13"/>
<path d="M667.64 139.75H659.37V123.13C659.37 119.62 659.19 117.34 658.83 116.31C658.48 115.28 657.9 114.48 657.1 113.9C656.31 113.33 655.35 113.04 654.24 113.04C652.8 113.04 651.52 113.45 650.38 114.26C649.25 115.09 648.46 116.16 648.04 117.51C647.62 118.86 647.4 121.35 647.4 124.99V139.73H639.13V107.2H646.81V111.98C649.55 108.3 652.98 106.45 657.12 106.45C658.94 106.45 660.62 106.8 662.13 107.48C663.64 108.17 664.78 109.04 665.56 110.11C666.33 111.18 666.88 112.38 667.18 113.73C667.49 115.08 667.64 117.01 667.64 119.52V139.75Z" fill="#E30C13"/>
<path d="M672.71 139.75V133.03L684.43 119.03C686.35 116.74 687.78 115.12 688.69 114.15C687.74 114.21 686.47 114.25 684.9 114.27L673.85 114.33V107.19H699.7V113.29L687.75 127.63L683.54 132.38C685.83 132.23 687.26 132.16 687.81 132.16H700.62V139.74H672.71V139.75Z" fill="#E30C13"/>
<path d="M706.19 94.81H714.46V102.78H706.19V94.81ZM706.19 107.2H714.46V139.75H706.19V107.2Z" fill="#E30C13"/>
<path d="M741.05 129.4L749.3 130.83C748.23 133.98 746.57 136.38 744.28 138.02C742 139.67 739.13 140.49 735.69 140.49H735.34V134.05C735.48 134.06 735.63 134.06 735.78 134.06C737.08 134.06 738.16 133.69 739.05 132.96C739.93 132.21 740.61 131.03 741.05 129.4ZM735.34 106.47C739.77 106.58 743.28 108.17 745.88 111.27C748.57 114.47 749.85 119.37 749.74 125.97H735.34V120.7H741.52C741.46 118.2 740.85 116.31 739.67 115.01C738.49 113.71 737.06 113.06 735.37 113.06H735.34V106.47ZM735.34 140.48C730.08 140.4 726.18 138.56 723.62 134.94C721.56 131.98 720.53 128.23 720.53 123.72C720.53 118.32 721.89 114.09 724.6 111.04C727.31 107.98 730.73 106.46 734.88 106.46C735.04 106.46 735.19 106.46 735.35 106.47V113.06C733.55 113.07 732.08 113.76 730.91 115.12C729.73 116.48 729.15 118.34 729.17 120.7H735.35V125.97H729.02C729.08 128.52 729.74 130.51 731.02 131.92C732.2 133.23 733.64 133.94 735.35 134.05V140.48H735.34Z" fill="#E30C13"/>
<path d="M483.46 198.2H475.78V193.42C474.5 195.28 473 196.66 471.25 197.57C470.27 198.08 469.28 198.45 468.29 198.67V192.12H468.35C470.26 192.12 471.88 191.27 473.22 189.59C474.55 187.91 475.22 185.39 475.22 182.04C475.22 178.3 474.57 175.6 473.28 173.96C471.98 172.32 470.33 171.49 468.3 171.49V165.11C470.89 165.62 473.19 167.07 475.19 169.44V153.25H483.46V198.2ZM468.3 198.67C467.54 198.84 466.77 198.92 466.01 198.92C462.41 198.92 459.34 197.42 456.77 194.4C454.22 191.39 452.93 187.18 452.93 181.79C452.93 176.27 454.18 172.07 456.67 169.2C459.16 166.33 462.32 164.89 466.13 164.89C466.88 164.89 467.6 164.96 468.3 165.1V171.48C466.34 171.48 464.7 172.29 463.37 173.92C462.04 175.54 461.38 177.97 461.38 181.2C461.38 184.67 461.84 187.19 462.77 188.74C464.09 190.96 465.94 192.09 468.3 192.11V198.67Z" fill="#E30C13"/>
<path d="M509.73 187.84L517.98 189.27C516.92 192.42 515.25 194.82 512.96 196.46C510.68 198.11 507.81 198.93 504.38 198.93H504.03V192.48C504.18 192.49 504.32 192.49 504.47 192.49C505.77 192.49 506.85 192.12 507.74 191.39C508.61 190.65 509.28 189.47 509.73 187.84ZM504.02 164.91C508.45 165.02 511.96 166.61 514.56 169.71C517.25 172.91 518.53 177.81 518.42 184.41H504.02V179.13H510.2C510.14 176.63 509.53 174.74 508.35 173.44C507.17 172.14 505.74 171.49 504.05 171.49H504.02V164.91ZM504.02 198.93C498.76 198.85 494.86 197.01 492.3 193.39C490.24 190.43 489.2 186.68 489.2 182.17C489.2 176.77 490.56 172.54 493.27 169.49C495.98 166.44 499.4 164.91 503.54 164.91C503.7 164.91 503.86 164.91 504.01 164.92V171.51C502.21 171.52 500.74 172.21 499.57 173.57C498.39 174.93 497.81 176.79 497.83 179.15H504.01V184.43H497.67C497.73 186.98 498.39 188.97 499.67 190.38C500.85 191.69 502.29 192.4 504 192.5V198.93H504.02Z" fill="#E30C13"/>
<path d="M541.99 198.2V153.26H573.99V160.86H550.7V170.83H572.37V178.39H550.7V190.62H574.81V198.2H541.99Z" fill="#E30C13"/>
<path d="M610.6 198.2H602.33V181.58C602.33 178.07 602.15 175.79 601.79 174.76C601.44 173.73 600.85 172.93 600.06 172.35C599.27 171.78 598.31 171.49 597.2 171.49C595.76 171.49 594.48 171.9 593.34 172.71C592.2 173.54 591.42 174.61 591 175.96C590.58 177.31 590.37 179.8 590.37 183.44V198.18H582.1V165.63H589.78V170.41C592.52 166.73 595.95 164.88 600.09 164.88C601.91 164.88 603.59 165.23 605.1 165.91C606.61 166.6 607.75 167.47 608.53 168.54C609.3 169.61 609.85 170.81 610.15 172.16C610.46 173.51 610.61 175.44 610.61 177.95V198.2H610.6Z" fill="#E30C13"/>
<path d="M616.08 188.91L624.38 187.59C624.73 189.26 625.45 190.54 626.53 191.41C627.61 192.28 629.12 192.72 631.06 192.72C633.2 192.72 634.81 192.31 635.89 191.49C636.62 190.92 636.98 190.15 636.98 189.2C636.98 188.54 636.78 187.99 636.39 187.57C635.98 187.16 635.05 186.79 633.63 186.44C626.95 184.91 622.72 183.51 620.93 182.24C618.46 180.48 617.22 178.04 617.22 174.91C617.22 172.1 618.28 169.72 620.42 167.81C622.56 165.88 625.88 164.92 630.37 164.92C634.65 164.92 637.84 165.65 639.92 167.1C642 168.55 643.42 170.7 644.21 173.55L636.41 175.05C636.08 173.78 635.45 172.81 634.51 172.14C633.57 171.46 632.25 171.12 630.52 171.12C628.34 171.12 626.78 171.43 625.84 172.07C625.22 172.52 624.91 173.11 624.91 173.82C624.91 174.44 625.18 174.95 625.73 175.38C626.47 175.96 629.05 176.76 633.46 177.81C637.87 178.85 640.94 180.12 642.69 181.64C644.42 183.18 645.28 185.31 645.28 188.04C645.28 191.02 644.08 193.59 641.68 195.74C639.29 197.88 635.75 198.95 631.06 198.95C626.8 198.95 623.43 198.05 620.94 196.25C618.46 194.44 616.84 191.99 616.08 188.91Z" fill="#E30C13"/>
<path d="M652.53 153.26H660.8V161.23H652.53V153.26ZM652.53 165.64H660.8V198.19H652.53V165.64Z" fill="#E30C13"/>
<path d="M697.73 198.2H689.46V181.58C689.46 178.07 689.28 175.79 688.92 174.76C688.57 173.73 687.98 172.93 687.19 172.35C686.4 171.78 685.44 171.49 684.33 171.49C682.89 171.49 681.61 171.9 680.47 172.71C679.33 173.54 678.55 174.61 678.13 175.96C677.71 177.31 677.5 179.8 677.5 183.44V198.18H669.23V165.63H676.91V170.41C679.65 166.73 683.08 164.88 687.22 164.88C689.04 164.88 690.72 165.23 692.23 165.91C693.74 166.6 694.89 167.47 695.66 168.54C696.43 169.61 696.98 170.81 697.28 172.16C697.59 173.51 697.74 175.44 697.74 177.95V198.2H697.73Z" fill="#E30C13"/>
<path d="M720.34 164.9C725.06 164.9 728.93 166.5 731.96 169.7C734.98 172.9 736.49 176.94 736.49 181.83C736.49 186.75 734.96 190.83 731.91 194.07C728.86 197.31 725.02 198.92 720.38 198.92H720.34V191.9H720.36C722.52 191.9 724.33 191.04 725.79 189.33C727.26 187.61 727.99 185.12 727.99 181.85C727.99 178.67 727.26 176.21 725.79 174.49C724.34 172.77 722.52 171.92 720.36 171.92H720.34V164.9ZM704.21 181.46C704.21 178.6 704.89 175.83 706.24 173.15C707.6 170.48 709.52 168.43 712 167.03C714.48 165.62 717.26 164.9 720.32 164.9H720.33V171.92C718.17 171.92 716.36 172.78 714.9 174.49C713.42 176.21 712.69 178.69 712.69 181.91C712.69 185.14 713.43 187.61 714.9 189.33C716.36 191.04 718.18 191.9 720.33 191.9V198.92C717.47 198.91 714.76 198.24 712.17 196.9C709.57 195.55 707.59 193.57 706.23 190.97C704.89 188.37 704.21 185.2 704.21 181.46Z" fill="#E30C13"/>
<path d="M1161.72 61.88C1155.38 55.54 1150.31 50.47 1150.31 50.47C1150.31 50.47 1107.22 68.21 1110.39 139.83C1104.05 133.49 1092.01 97.37 1130.67 47.31C1127.5 42.87 1127.5 42.87 1127.5 42.87C1127.5 42.87 1126.16 44.5 1124.05 47.42C1113.53 39.73 1100.14 35.26 1083.74 35.26C1035.87 35.26 1013.65 73.28 1013.65 118.63C1013.65 131.64 1015.48 144.05 1019.22 155.13H1019.23C1012.02 159.66 1007.22 163.42 1006.09 164.33V159.18H947.91L980.89 133.07C995.55 121.62 1006.77 106.73 1006.77 86.12C1006.77 57.26 985.47 35.27 948.59 35.27C914.23 35.27 889.73 56.11 887.89 90.93H932.55C932.78 81.31 937.82 74.44 947.21 74.44C955.91 74.44 961.18 79.94 961.18 87.5C961.18 95.97 956.14 101.01 949.73 106.97L888.8 161.71V198.82H1006.07V164.75C1006.48 165.04 1007.53 165.8 1010.24 167.73C1060.3 129.07 1096.43 141.11 1102.76 147.45C1031.15 144.28 1013.41 187.37 1013.41 187.37C1013.41 187.37 1018.48 192.44 1024.82 198.78C1055.87 152.52 1107.6 165.86 1107.6 165.86L1118.19 155.27L1128.78 144.68C1128.81 144.65 1115.46 92.93 1161.72 61.88ZM1060.95 137.21C1059.94 131.63 1059.47 125.37 1059.47 118.63C1059.47 93.21 1066.11 74.42 1083.75 74.42C1092.9 74.42 1099.08 79.48 1102.92 87.9C1097.3 105.1 1095.48 124.79 1105.27 142.31C1091.1 134.38 1075.5 134.06 1060.95 137.21ZM1053.06 180.44L1045.46 198.57H1049.51L1051.05 194.58H1059.18L1060.72 198.57H1064.74L1057.16 180.44H1053.06ZM1052.24 191.42L1055.11 184.01L1057.97 191.42H1052.24ZM1082.02 180.44H1085.68V198.57H1082.13L1072.21 186.09V198.57H1068.57V180.44H1072.1L1082.02 192.92V180.44ZM1099.68 180.08C1093.95 180.08 1090.07 184.46 1090.07 189.51C1090.07 194.56 1093.95 198.94 1099.68 198.94C1105.41 198.94 1109.29 194.56 1109.29 189.51C1109.29 184.45 1105.41 180.08 1099.68 180.08ZM1099.68 195.74C1095.99 195.74 1093.92 192.53 1093.92 189.5C1093.92 186.47 1095.99 183.26 1099.68 183.26C1103.4 183.26 1105.44 186.47 1105.44 189.5C1105.44 192.53 1103.4 195.74 1099.68 195.74ZM1128.49 192.95C1128.49 196.5 1125.29 198.93 1120.91 198.93C1116.31 198.93 1113.36 196.57 1112.84 192.92H1116.59C1117.03 194.76 1118.44 196.05 1120.97 196.05C1123.34 196.05 1124.74 194.96 1124.74 193.36C1124.74 192.14 1123.91 191.39 1122.18 191.05L1118.08 190.27C1114.99 189.7 1113.31 188.25 1113.31 185.45C1113.31 182.32 1116.31 180.06 1120.61 180.06C1124.91 180.06 1127.66 182.21 1127.97 185.68H1124.25C1123.92 184.07 1122.71 182.93 1120.59 182.93C1118.47 182.93 1117.06 183.73 1117.06 185.21C1117.06 186.27 1117.67 186.82 1119.18 187.1L1123.5 187.88C1126.73 188.47 1128.49 190.2 1128.49 192.95Z" fill="url(#paint0_linear_0_1)"/>
<path d="M211.8 295.7H234.58V299.98H216.97V309.12H233.97V313.4H216.97V326.6H211.8V295.7Z" fill="#E30C13"/>
<path d="M238.66 315.21C238.66 308.63 243.69 303.29 250.73 303.29C257.77 303.29 262.8 308.63 262.8 315.21C262.8 321.79 257.77 327.13 250.73 327.13C243.69 327.13 238.66 321.79 238.66 315.21ZM257.78 315.21C257.78 311.19 255.15 307.26 250.74 307.26C246.32 307.26 243.69 311.19 243.69 315.21C243.69 319.23 246.32 323.11 250.74 323.11C255.15 323.11 257.78 319.23 257.78 315.21Z" fill="#E30C13"/>
<path d="M268.15 303.82H272.94V309.12C273.74 305.76 276.04 303.56 280.17 303.56C280.92 303.56 281.63 303.6 282.1 303.74V308.11C281.58 308.02 281.16 308.02 280.55 308.02C276.09 308.02 273.18 310.93 273.18 316.1V326.61H268.15V303.82Z" fill="#E30C13"/>
<path d="M288.35 319.32V307.71H284.08V303.83H288.35V297.78H293.38V303.83H299.86V307.71H293.38V319.32C293.38 321.62 294.55 322.85 297 322.85C298.17 322.85 299.21 322.63 299.91 322.45V326.33C299.06 326.68 297.42 326.86 295.78 326.86C290.83 326.87 288.35 324.31 288.35 319.32Z" fill="#E30C13"/>
<path d="M313.19 312.83L320 312.39V311.55C320 308.68 318.36 306.91 315.07 306.91C312.06 306.91 310.23 308.5 309.86 310.57H304.98C305.73 306.24 309.49 303.29 315.03 303.29C321.56 303.29 325.03 306.64 325.03 311.72V326.6H320.15V323.2C319.21 325.36 316.49 327.13 312.64 327.13C307.43 327.13 304.09 324.26 304.09 319.98C304.08 315.65 307.27 313.23 313.19 312.83ZM313.75 323.78C317.41 323.78 320 321.48 320 317.51V315.61L314.5 315.96C310.98 316.18 308.96 317.37 308.96 319.84C308.96 322.19 310.61 323.78 313.75 323.78Z" fill="#E30C13"/>
<path d="M332.07 294.38H337.1V326.6H332.07V294.38Z" fill="#E30C13"/>
<path d="M354.38 303.29C361.89 303.29 365.7 308.41 365.7 314.77V316.27H347.57C347.8 320.24 350.25 323.42 354.61 323.42C357.9 323.42 359.73 321.88 360.62 319.84H365.32C364.1 324.17 360.01 327.12 354.61 327.12C347.05 327.12 342.68 321.82 342.68 315.2C342.68 308.46 347.56 303.29 354.38 303.29ZM360.95 312.78C360.53 309.29 358.18 306.78 354.33 306.78C350.57 306.78 348.27 309.43 347.71 312.78H360.95Z" fill="#E30C13"/>
<path d="M381.61 303.29C387.81 303.29 391.76 306.87 392.65 311.63H387.77C386.92 309.16 384.95 307.3 381.62 307.3C377.25 307.3 374.67 311.1 374.67 315.2C374.67 319.3 377.25 323.06 381.62 323.06C384.95 323.06 386.93 321.25 387.77 318.78H392.65C391.76 323.55 387.81 327.12 381.61 327.12C374.33 327.12 369.59 321.56 369.59 315.2C369.59 308.86 374.33 303.29 381.61 303.29Z" fill="#E30C13"/>
<path d="M408.29 303.29C415.8 303.29 419.61 308.41 419.61 314.77V316.27H401.48C401.71 320.24 404.16 323.42 408.52 323.42C411.81 323.42 413.64 321.88 414.53 319.84H419.23C418.01 324.17 413.92 327.12 408.52 327.12C400.96 327.12 396.59 321.82 396.59 315.2C396.59 308.46 401.48 303.29 408.29 303.29ZM414.86 312.78C414.44 309.29 412.09 306.78 408.24 306.78C404.48 306.78 402.18 309.43 401.62 312.78H414.86Z" fill="#E30C13"/>
<path d="M425.1 303.82H429.94V307.48C431.02 304.92 433.51 303.29 437.22 303.29C442.95 303.29 446 307.04 446 312.69V326.6H440.97V313.31C440.97 309.82 439.37 307.44 435.9 307.44C432.43 307.44 430.12 309.65 430.12 313.4V326.6H425.09V303.82H425.1Z" fill="#E30C13"/>
<path d="M470.28 326.6V322.58C469.11 325.14 466.1 327.13 462.2 327.13C455.77 327.13 451.12 321.83 451.12 315.21C451.12 308.59 455.77 303.29 462.2 303.29C466.05 303.29 469.01 305.28 470.14 307.84V294.38H475.17V326.6H470.28ZM463.04 307.31C458.86 307.31 456.18 311.02 456.18 315.21C456.18 319.4 458.86 323.11 463.04 323.11C467.22 323.11 470.13 319.53 470.13 315.21C470.14 310.89 467.22 307.31 463.04 307.31Z" fill="#E30C13"/>
<path d="M480.51 315.21C480.51 308.63 485.54 303.29 492.58 303.29C499.62 303.29 504.65 308.63 504.65 315.21C504.65 321.79 499.62 327.13 492.58 327.13C485.54 327.13 480.51 321.79 480.51 315.21ZM499.63 315.21C499.63 311.19 497 307.26 492.59 307.26C488.17 307.26 485.54 311.19 485.54 315.21C485.54 319.23 488.17 323.11 492.59 323.11C497 323.11 499.63 319.23 499.63 315.21Z" fill="#E30C13"/>
<path d="M517.28 303.82H522.26L528.93 321.57L535.6 303.82H540.63L531.57 326.6H526.31L517.28 303.82Z" fill="#E30C13"/>
<path d="M552.08 312.83L558.89 312.39V311.55C558.89 308.68 557.25 306.91 553.96 306.91C550.95 306.91 549.12 308.5 548.75 310.57H543.87C544.62 306.24 548.38 303.29 553.92 303.29C560.45 303.29 563.92 306.64 563.92 311.72V326.6H559.04V323.2C558.1 325.36 555.38 327.13 551.53 327.13C546.32 327.13 542.98 324.26 542.98 319.98C542.97 315.65 546.17 313.23 552.08 312.83ZM552.65 323.78C556.31 323.78 558.9 321.48 558.9 317.51V315.61L553.4 315.96C549.88 316.18 547.86 317.37 547.86 319.84C547.86 322.19 549.5 323.78 552.65 323.78Z" fill="#E30C13"/>
<path d="M570.96 294.38H575.99V326.6H570.96V294.38Z" fill="#E30C13"/>
<path d="M581.57 315.21C581.57 308.63 586.6 303.29 593.64 303.29C600.68 303.29 605.71 308.63 605.71 315.21C605.71 321.79 600.68 327.13 593.64 327.13C586.6 327.13 581.57 321.79 581.57 315.21ZM600.69 315.21C600.69 311.19 598.06 307.26 593.65 307.26C589.24 307.26 586.61 311.19 586.61 315.21C586.61 319.23 589.24 323.11 593.65 323.11C598.06 323.11 600.69 319.23 600.69 315.21Z" fill="#E30C13"/>
<path d="M611.07 303.82H615.86V309.12C616.66 305.76 618.96 303.56 623.09 303.56C623.84 303.56 624.55 303.6 625.02 303.74V308.11C624.5 308.02 624.08 308.02 623.47 308.02C619.01 308.02 616.1 310.93 616.1 316.1V326.61H611.07V303.82Z" fill="#E30C13"/>
<path d="M639.06 303.29C646.57 303.29 650.38 308.41 650.38 314.77V316.27H632.25C632.49 320.24 634.93 323.42 639.29 323.42C642.58 323.42 644.41 321.88 645.3 319.84H650C648.78 324.17 644.69 327.12 639.29 327.12C631.73 327.12 627.36 321.82 627.36 315.2C627.36 308.46 632.25 303.29 639.06 303.29ZM645.63 312.78C645.21 309.29 642.86 306.78 639.01 306.78C635.25 306.78 632.95 309.43 632.39 312.78H645.63Z" fill="#E30C13"/>
<path d="M654.08 319.32H658.78C659.34 321.88 661.32 323.69 664.93 323.69C668.22 323.69 670.19 322.19 670.19 320.03C670.19 318.4 669.02 317.38 666.24 316.94L661.26 316.15C656.84 315.44 654.59 313.59 654.59 310.19C654.59 306.04 658.49 303.3 664.17 303.3C669.95 303.3 673.61 306.04 674.03 310.45H669.33C668.95 308.37 667.36 306.74 664.16 306.74C661.15 306.74 659.18 307.84 659.18 309.79C659.18 311.29 660.12 311.86 662.61 312.26L667.68 313.05C672.42 313.8 674.82 315.83 674.82 319.63C674.82 324.22 670.45 327.13 664.91 327.13C658.92 327.13 654.93 324.17 654.08 319.32Z" fill="#E30C13"/>
<path d="M686.07 321.17L681.89 332.07H678.04L680.62 321.17H686.07Z" fill="#E30C13"/>
<path d="M704.24 307.71H700.34V303.83H704.24V302.02C704.24 296.81 706.78 293.85 712.55 293.85C713.82 293.85 714.99 293.94 715.6 294.12V297.83C715.13 297.7 714.38 297.65 713.49 297.65C710.67 297.65 709.26 299.11 709.26 301.84V303.83H715.22V307.71H709.26V326.6H704.23V307.71H704.24Z" fill="#E30C13"/>
<path d="M717.29 315.21C717.29 308.63 722.32 303.29 729.36 303.29C736.4 303.29 741.43 308.63 741.43 315.21C741.43 321.79 736.4 327.13 729.36 327.13C722.32 327.13 717.29 321.79 717.29 315.21ZM736.41 315.21C736.41 311.19 733.78 307.26 729.37 307.26C724.96 307.26 722.33 311.19 722.33 315.21C722.33 319.23 724.96 323.11 729.37 323.11C733.78 323.11 736.41 319.23 736.41 315.21Z" fill="#E30C13"/>
<path d="M746.79 303.82H751.58V309.12C752.38 305.76 754.68 303.56 758.81 303.56C759.56 303.56 760.27 303.6 760.74 303.74V308.11C760.22 308.02 759.8 308.02 759.19 308.02C754.73 308.02 751.82 310.93 751.82 316.1V326.61H746.79V303.82Z" fill="#E30C13"/>
<path d="M765.33 303.82H770.17V307.57C771.25 304.97 773.65 303.29 777.21 303.29C780.97 303.29 783.41 304.88 784.72 307.4C786.18 304.93 788.76 303.29 792.56 303.29C798.34 303.29 801.25 306.91 801.25 312.43V326.6H796.22V313.18C796.22 309.69 794.62 307.44 791.19 307.44C787.86 307.44 785.79 309.56 785.79 313.36V326.6H780.76V313.18C780.76 309.69 779.16 307.44 775.78 307.44C772.45 307.44 770.33 309.56 770.33 313.36V326.6H765.3V303.82H765.33Z" fill="#E30C13"/>
<path d="M816.38 312.83L823.19 312.39V311.55C823.19 308.68 821.55 306.91 818.26 306.91C815.25 306.91 813.42 308.5 813.05 310.57H808.17C808.92 306.24 812.68 303.29 818.22 303.29C824.75 303.29 828.22 306.64 828.22 311.72V326.6H823.34V323.2C822.4 325.36 819.68 327.13 815.83 327.13C810.62 327.13 807.28 324.26 807.28 319.98C807.27 315.65 810.46 313.23 816.38 312.83ZM816.95 323.78C820.61 323.78 823.2 321.48 823.2 317.51V315.61L817.7 315.96C814.18 316.18 812.16 317.37 812.16 319.84C812.16 322.19 813.8 323.78 816.95 323.78Z" fill="#E30C13"/>
<path d="M835.03 303.82H839.87V307.48C840.95 304.92 843.44 303.29 847.15 303.29C852.88 303.29 855.93 307.04 855.93 312.69V326.6H850.9V313.31C850.9 309.82 849.3 307.44 845.83 307.44C842.36 307.44 840.05 309.65 840.05 313.4V326.6H835.02V303.82H835.03Z" fill="#E30C13"/>
<path d="M880.21 326.6V322.58C879.04 325.14 876.03 327.13 872.13 327.13C865.7 327.13 861.05 321.83 861.05 315.21C861.05 308.59 865.7 303.29 872.13 303.29C875.98 303.29 878.94 305.28 880.07 307.84V294.38H885.1V326.6H880.21ZM872.97 307.31C868.79 307.31 866.11 311.02 866.11 315.21C866.11 319.4 868.79 323.11 872.97 323.11C877.15 323.11 880.06 319.53 880.06 315.21C880.06 310.89 877.15 307.31 872.97 307.31Z" fill="#E30C13"/>
<path d="M890.44 315.21C890.44 308.63 895.47 303.29 902.51 303.29C909.55 303.29 914.58 308.63 914.58 315.21C914.58 321.79 909.55 327.13 902.51 327.13C895.47 327.13 890.44 321.79 890.44 315.21ZM909.56 315.21C909.56 311.19 906.93 307.26 902.52 307.26C898.11 307.26 895.48 311.19 895.48 315.21C895.48 319.23 898.11 323.11 902.52 323.11C906.93 323.11 909.56 319.23 909.56 315.21Z" fill="#E30C13"/>
<path d="M940.46 303.29C946.66 303.29 950.6 306.87 951.5 311.63H946.62C945.77 309.16 943.8 307.3 940.47 307.3C936.1 307.3 933.52 311.1 933.52 315.2C933.52 319.3 936.1 323.06 940.47 323.06C943.8 323.06 945.78 321.25 946.62 318.78H951.5C950.61 323.55 946.66 327.12 940.46 327.12C933.18 327.12 928.44 321.56 928.44 315.2C928.43 308.86 933.18 303.29 940.46 303.29Z" fill="#E30C13"/>
<path d="M956.98 294.95H962.19V300.16H956.98V294.95ZM957.08 303.82H962.11V326.6H957.08V303.82Z" fill="#E30C13"/>
<path d="M986.85 326.6V322.58C985.68 325.14 982.67 327.13 978.77 327.13C972.34 327.13 967.69 321.83 967.69 315.21C967.69 308.59 972.34 303.29 978.77 303.29C982.62 303.29 985.58 305.28 986.71 307.84V294.38H991.74V326.6H986.85ZM979.62 307.31C975.44 307.31 972.76 311.02 972.76 315.21C972.76 319.4 975.44 323.11 979.62 323.11C983.8 323.11 986.71 319.53 986.71 315.21C986.71 310.89 983.8 307.31 979.62 307.31Z" fill="#E30C13"/>
<path d="M1007.05 312.83L1013.86 312.39V311.55C1013.86 308.68 1012.22 306.91 1008.93 306.91C1005.92 306.91 1004.09 308.5 1003.72 310.57H998.84C999.59 306.24 1003.35 303.29 1008.89 303.29C1015.42 303.29 1018.89 306.64 1018.89 311.72V326.6H1014V323.2C1013.06 325.36 1010.34 327.13 1006.49 327.13C1001.28 327.13 997.94 324.26 997.94 319.98C997.93 315.65 1001.13 313.23 1007.05 312.83ZM1007.61 323.78C1011.27 323.78 1013.86 321.48 1013.86 317.51V315.61L1008.36 315.96C1004.84 316.18 1002.82 317.37 1002.82 319.84C1002.82 322.19 1004.46 323.78 1007.61 323.78Z" fill="#E30C13"/>
<path d="M1043.16 326.6V322.58C1041.99 325.14 1038.98 327.13 1035.08 327.13C1028.65 327.13 1024 321.83 1024 315.21C1024 308.59 1028.65 303.29 1035.08 303.29C1038.93 303.29 1041.89 305.28 1043.02 307.84V294.38H1048.05V326.6H1043.16ZM1035.93 307.31C1031.75 307.31 1029.07 311.02 1029.07 315.21C1029.07 319.4 1031.75 323.11 1035.93 323.11C1040.11 323.11 1043.02 319.53 1043.02 315.21C1043.02 310.89 1040.11 307.31 1035.93 307.31Z" fill="#E30C13"/>
<path d="M1063.35 312.83L1070.16 312.39V311.55C1070.16 308.68 1068.52 306.91 1065.23 306.91C1062.22 306.91 1060.39 308.5 1060.02 310.57H1055.14C1055.89 306.24 1059.65 303.29 1065.19 303.29C1071.72 303.29 1075.19 306.64 1075.19 311.72V326.6H1070.31V323.2C1069.37 325.36 1066.65 327.13 1062.8 327.13C1057.59 327.13 1054.25 324.26 1054.25 319.98C1054.24 315.65 1057.44 313.23 1063.35 312.83ZM1065.42 299.45C1064.25 298.79 1063.26 298.21 1062.46 298.21C1061.29 298.21 1061.19 299.53 1061.14 300.68H1057.66C1057.8 297.32 1058.93 294.63 1062.17 294.63C1063.3 294.63 1064.57 295.25 1065.83 295.95C1067.05 296.66 1068.04 297.36 1068.79 297.36C1069.82 297.36 1069.96 296.12 1069.96 294.76H1073.39C1073.44 298.16 1072.4 300.9 1069.35 300.9C1068.1 300.91 1066.74 300.07 1065.42 299.45ZM1063.92 323.78C1067.58 323.78 1070.17 321.48 1070.17 317.51V315.61L1064.67 315.96C1061.15 316.18 1059.13 317.37 1059.13 319.84C1059.13 322.19 1060.77 323.78 1063.92 323.78Z" fill="#E30C13"/>
<path d="M1080.31 315.21C1080.31 308.63 1085.34 303.29 1092.38 303.29C1099.42 303.29 1104.45 308.63 1104.45 315.21C1104.45 321.79 1099.42 327.13 1092.38 327.13C1085.34 327.13 1080.31 321.79 1080.31 315.21ZM1099.42 315.21C1099.42 311.19 1096.79 307.26 1092.38 307.26C1087.97 307.26 1085.34 311.19 1085.34 315.21C1085.34 319.23 1087.97 323.11 1092.38 323.11C1096.79 323.11 1099.42 319.23 1099.42 315.21Z" fill="#E30C13"/>
<path d="M1108.01 319.32H1112.71C1113.27 321.88 1115.25 323.69 1118.86 323.69C1122.15 323.69 1124.12 322.19 1124.12 320.03C1124.12 318.4 1122.95 317.38 1120.17 316.94L1115.19 316.15C1110.77 315.44 1108.52 313.59 1108.52 310.19C1108.52 306.04 1112.42 303.3 1118.1 303.3C1123.88 303.3 1127.54 306.04 1127.96 310.45H1123.26C1122.88 308.37 1121.29 306.74 1118.09 306.74C1115.08 306.74 1113.11 307.84 1113.11 309.79C1113.11 311.29 1114.05 311.86 1116.54 312.26L1121.61 313.05C1126.35 313.8 1128.75 315.83 1128.75 319.63C1128.75 324.22 1124.38 327.13 1118.84 327.13C1112.85 327.13 1108.86 324.17 1108.01 319.32Z" fill="#E30C13"/>
<defs>
<linearGradient id="paint0_linear_0_1" x1="887.908" y1="117.093" x2="1161.72" y2="117.093" gradientUnits="userSpaceOnUse">
<stop offset="0.1" stop-color="#E30C13"/>
<stop offset="0.35" stop-color="#E93C42"/>
<stop offset="0.6" stop-color="#E30C13"/>
<stop offset="0.9993" stop-color="#0A4C86"/>
</linearGradient>
</defs>
</svg>
