<svg width="320" height="320" viewBox="0 0 320 320" fill="none" xmlns="http://www.w3.org/2000/svg">
<path d="M0 45C0 36.6362 0 32.4543 0.69173 28.9767C3.53237 14.6959 14.6959 3.53237 28.9767 0.69173C32.4543 0 36.6362 0 45 0H275C283.364 0 287.546 0 291.023 0.69173C305.304 3.53237 316.468 14.6959 319.308 28.9767C320 32.4543 320 36.6362 320 45V275C320 283.364 320 287.546 319.308 291.023C316.468 305.304 305.304 316.468 291.023 319.308C287.546 320 283.364 320 275 320H45C36.6362 320 32.4543 320 28.9767 319.308C14.6959 316.468 3.53237 305.304 0.69173 291.023C0 287.546 0 283.364 0 275V45Z" fill="#FF0000"/>
</svg>
