<svg width="320" height="320" viewBox="0 0 320 320" fill="none" xmlns="http://www.w3.org/2000/svg">
<path d="M0 54C0 37.2261 0 28.8392 2.74034 22.2234C6.39412 13.4024 13.4024 6.39412 22.2234 2.74034C28.8392 0 37.2261 0 54 0H266C282.774 0 291.161 0 297.777 2.74034C306.598 6.39412 313.606 13.4024 317.26 22.2234C320 28.8392 320 37.2261 320 54V266C320 282.774 320 291.161 317.26 297.777C313.606 306.598 306.598 313.606 297.777 317.26C291.161 320 282.774 320 266 320H54C37.2261 320 28.8392 320 22.2234 317.26C13.4024 313.606 6.39412 306.598 2.74034 297.777C0 291.161 0 282.774 0 266V54Z" fill="#FF0000"/>
</svg>
