<svg width="320" height="320" viewBox="0 0 320 320" fill="none" xmlns="http://www.w3.org/2000/svg">
<path d="M0 63C0 37.7197 0 25.0795 6.06709 15.9995C8.6936 12.0686 12.0686 8.6936 15.9995 6.06709C25.0795 0 37.7197 0 63 0H257C282.28 0 294.92 0 304.001 6.06709C307.931 8.6936 311.306 12.0686 313.933 15.9995C320 25.0795 320 37.7197 320 63V257C320 282.28 320 294.92 313.933 304.001C311.306 307.931 307.931 311.306 304.001 313.933C294.92 320 282.28 320 257 320H63C37.7197 320 25.0795 320 15.9995 313.933C12.0686 311.306 8.6936 307.931 6.06709 304.001C0 294.92 0 282.28 0 257V63Z" fill="#FF0000"/>
</svg>
