<svg viewBox="0 0 36 36" fill="none" xmlns="http://www.w3.org/2000/svg">
<path d="M17.6327 1H18.3673C22.5517 1 25.5893 1.00212 27.908 1.31386C30.1979 1.62173 31.6363 2.215 32.7107 3.28935C33.785 4.3637 34.3783 5.80207 34.6861 8.09199C34.9979 10.4107 35 13.4483 35 17.6327V18.3673C35 22.5517 34.9979 25.5893 34.6861 27.908C34.3783 30.1979 33.785 31.6363 32.7107 32.7107C31.6363 33.785 30.1979 34.3783 27.908 34.6861C25.5893 34.9979 22.5517 35 18.3673 35H17.6327C13.4483 35 10.4107 34.9979 8.09199 34.6861C5.80207 34.3783 4.3637 33.785 3.28935 32.7107C2.215 31.6363 1.62173 30.1979 1.31386 27.908C1.00212 25.5893 1 22.5517 1 18.3673V17.6327C1 13.4483 1.00212 10.4107 1.31386 8.09199C1.62173 5.80207 2.215 4.3637 3.28935 3.28935C4.3637 2.215 5.80207 1.62173 8.09199 1.31386C10.4107 1.00212 13.4483 1 17.6327 1Z" fill="#FAFAFA" stroke="#FAFAFA" stroke-width="2"/>
<path d="M20.8338 13.5918H15.164C11.0497 13.5918 7.7144 17.1125 7.7144 21.4526C7.71348 21.5317 7.7277 21.6103 7.75624 21.6838C7.78478 21.7572 7.82709 21.8242 7.88075 21.8808C7.93441 21.9375 7.99837 21.9826 8.06898 22.0138C8.13958 22.0449 8.21545 22.0615 8.29224 22.0624H12.4215C14.7468 22.0624 16.7496 20.8475 18.0001 18.9871C19.2505 20.8475 21.2533 22.0624 23.5786 22.0624H27.7079C27.7847 22.0615 27.8606 22.0449 27.9312 22.0138C28.0018 21.9826 28.0657 21.9375 28.1194 21.8808C28.173 21.8242 28.2154 21.7572 28.2439 21.6838C28.2724 21.6103 28.2867 21.5317 28.2857 21.4526C28.2846 17.1125 24.9493 13.5918 20.8338 13.5918Z" fill="#18181B"/>
</svg>
