<svg width="27" height="24" viewBox="0 0 27 24" fill="none" xmlns="http://www.w3.org/2000/svg">
<path d="M0 14.7692C0 10.2081 0.612 6.95023 1.836 4.99547C3.132 2.96833 5.148 1.30317 7.884 0L11.016 4.23529C8.784 5.46606 7.344 6.62443 6.696 7.71041C6.12 8.72398 5.832 10.2805 5.832 12.3801H11.448V24H0V14.7692ZM15.66 14.7692C15.66 10.2081 16.272 6.95023 17.496 4.99547C18.792 2.96833 20.772 1.30317 23.436 0L26.568 4.23529C24.336 5.46606 22.896 6.62443 22.248 7.71041C21.672 8.72398 21.384 10.2805 21.384 12.3801H27V24H15.66V14.7692Z" fill="black"/>
</svg>
