<svg width="162" height="24" viewBox="0 0 162 24" fill="none" xmlns="http://www.w3.org/2000/svg">
<path d="M16.9293 1.16617C17.4288 -0.388725 19.6035 -0.388725 20.1029 1.16617L21.8833 6.7088C22.1067 7.40417 22.7473 7.87497 23.4701 7.87497H29.2316C30.8478 7.87497 31.5199 9.96708 30.2123 10.9281L25.5512 14.3536C24.9664 14.7833 24.7217 15.5451 24.9451 16.2405L26.7254 21.7831C27.2249 23.338 25.4655 24.631 24.1579 23.67L19.4968 20.2445C18.9121 19.8147 18.1202 19.8147 17.5354 20.2445L12.8743 23.67C11.5667 24.631 9.80736 23.338 10.3068 21.7831L12.0872 16.2405C12.3106 15.5451 12.0659 14.7833 11.4811 14.3536L6.81999 10.9281C5.51239 9.96707 6.18441 7.87497 7.80069 7.87497H13.5621C14.285 7.87497 14.9256 7.40417 15.1489 6.7088L16.9293 1.16617Z" fill="#FFC900"/>
<path d="M49.7035 1.16617C50.2029 -0.388725 52.3776 -0.388725 52.8771 1.16617L54.6575 6.7088C54.8808 7.40417 55.5215 7.87497 56.2443 7.87497H62.0057C63.622 7.87497 64.294 9.96708 62.9864 10.9281L58.3253 14.3536C57.7406 14.7833 57.4959 15.5451 57.7192 16.2405L59.4996 21.7831C59.9991 23.338 58.2397 24.631 56.9321 23.67L52.271 20.2445C51.6862 19.8147 50.8944 19.8147 50.3096 20.2445L45.6485 23.67C44.3409 24.631 42.5815 23.338 43.081 21.7831L44.8614 16.2405C45.0847 15.5451 44.84 14.7833 44.2553 14.3536L39.5942 10.9281C38.2866 9.96707 38.9586 7.87497 40.5749 7.87497H46.3363C47.0591 7.87497 47.6997 7.40417 47.9231 6.7088L49.7035 1.16617Z" fill="#FFC900"/>
<path d="M82.4777 1.16617C82.9771 -0.388725 85.1518 -0.388725 85.6513 1.16617L87.4317 6.7088C87.655 7.40417 88.2956 7.87497 89.0185 7.87497H94.7799C96.3962 7.87497 97.0682 9.96708 95.7606 10.9281L91.0995 14.3536C90.5147 14.7833 90.27 15.5451 90.4934 16.2405L92.2738 21.7831C92.7732 23.338 91.0139 24.631 89.7063 23.67L85.0452 20.2445C84.4604 19.8147 83.6685 19.8147 83.0838 20.2445L78.4227 23.67C77.1151 24.631 75.3557 23.338 75.8552 21.7831L77.6355 16.2405C77.8589 15.5451 77.6142 14.7833 77.0294 14.3536L72.3683 10.9281C71.0607 9.96707 71.7328 7.87497 73.349 7.87497H79.1105C79.8333 7.87497 80.4739 7.40417 80.6973 6.7088L82.4777 1.16617Z" fill="#FFC900"/>
<path d="M115.252 1.16617C115.751 -0.388725 117.926 -0.388725 118.426 1.16617L120.206 6.7088C120.429 7.40417 121.07 7.87497 121.793 7.87497H127.554C129.17 7.87497 129.842 9.96708 128.535 10.9281L123.874 14.3536C123.289 14.7833 123.044 15.5451 123.268 16.2405L125.048 21.7831C125.548 23.338 123.788 24.631 122.481 23.67L117.819 20.2445C117.235 19.8147 116.443 19.8147 115.858 20.2445L111.197 23.67C109.889 24.631 108.13 23.338 108.629 21.7831L110.41 16.2405C110.633 15.5451 110.389 14.7833 109.804 14.3536L105.143 10.9281C103.835 9.96707 104.507 7.87497 106.123 7.87497H111.885C112.608 7.87497 113.248 7.40417 113.472 6.7088L115.252 1.16617Z" fill="#FFC900"/>
<path d="M148.026 1.16617C148.526 -0.388725 150.7 -0.388725 151.2 1.16617L152.98 6.7088C153.203 7.40417 153.844 7.87497 154.567 7.87497H160.328C161.945 7.87497 162.617 9.96708 161.309 10.9281L156.648 14.3536C156.063 14.7833 155.818 15.5451 156.042 16.2405L157.822 21.7831C158.322 23.338 156.562 24.631 155.255 23.67L150.594 20.2445C150.009 19.8147 149.217 19.8147 148.632 20.2445L143.971 23.67C142.664 24.631 140.904 23.338 141.404 21.7831L143.184 16.2405C143.407 15.5451 143.163 14.7833 142.578 14.3536L137.917 10.9281C136.609 9.96707 137.281 7.87497 138.897 7.87497H144.659C145.382 7.87497 146.022 7.40417 146.246 6.7088L148.026 1.16617Z" fill="#FFC900"/>
</svg>
