<svg width="540" height="540" viewBox="0 0 540 540" fill="none" xmlns="http://www.w3.org/2000/svg">
<path d="M230.723 22.2528C248.503 -7.41758 291.497 -7.41763 309.277 22.2528L329.271 55.6195C339.64 72.923 360.111 81.4024 379.679 76.4989L417.411 67.0433C450.963 58.6352 481.365 89.037 472.957 122.589L463.501 160.321C458.598 179.889 467.077 200.36 484.38 210.729L517.747 230.723C547.418 248.503 547.418 291.497 517.747 309.277L484.38 329.271C467.077 339.64 458.598 360.111 463.501 379.679L472.957 417.411C481.365 450.963 450.963 481.365 417.411 472.957L379.679 463.501C360.111 458.598 339.64 467.077 329.271 484.38L309.277 517.747C291.497 547.418 248.503 547.418 230.723 517.747L210.729 484.38C200.36 467.077 179.889 458.598 160.321 463.501L122.589 472.957C89.0371 481.365 58.6352 450.963 67.0433 417.411L76.4989 379.679C81.4024 360.111 72.923 339.64 55.6195 329.271L22.2528 309.277C-7.41758 291.497 -7.41763 248.503 22.2528 230.723L55.6195 210.729C72.923 200.36 81.4024 179.889 76.4989 160.321L67.0433 122.589C58.6352 89.0371 89.037 58.6352 122.589 67.0433L160.321 76.4989C179.889 81.4024 200.36 72.923 210.729 55.6195L230.723 22.2528Z" fill="white"/>
</svg>
